<mxfile host="Electron" modified="2023-09-03T13:42:15.742Z" agent="Mozilla/5.0 (Macintosh; Intel Mac OS X 10_15_7) AppleWebKit/537.36 (KHTML, like Gecko) draw.io/21.6.8 Chrome/114.0.5735.289 Electron/25.5.0 Safari/537.36" etag="03rAMqL_IgrR4RgxWhNj" version="21.6.8" type="device" pages="2">
  <diagram name="service-mesh" id="lKekTSO7qNo47z_c9u0-">
    <mxGraphModel dx="1306" dy="894" grid="1" gridSize="10" guides="1" tooltips="1" connect="1" arrows="1" fold="1" page="1" pageScale="1" pageWidth="1600" pageHeight="900" math="0" shadow="0">
      <root>
        <mxCell id="0" />
        <mxCell id="1" parent="0" />
        <mxCell id="V5ecV9tyhU_hMFTUtyuU-2" value="Data Plane&amp;nbsp;&amp;nbsp;" style="fontStyle=0;verticalAlign=bottom;align=right;spacingTop=-2;fillColor=#f5f5f5;rounded=0;whiteSpace=wrap;html=1;strokeWidth=2;dashed=1;container=1;collapsible=0;expand=0;recursiveResize=0;labelPosition=center;verticalLabelPosition=middle;strokeColor=#666666;fontColor=#333333;" parent="1" vertex="1">
          <mxGeometry x="250" y="360" width="850" height="350" as="geometry" />
        </mxCell>
        <mxCell id="V5ecV9tyhU_hMFTUtyuU-3" value="Deployment" style="fontStyle=0;verticalAlign=bottom;align=left;spacingTop=-2;fillColor=none;rounded=0;whiteSpace=wrap;html=1;strokeColor=#4376BB;strokeWidth=1;dashed=0;container=1;collapsible=0;expand=0;recursiveResize=0;" parent="V5ecV9tyhU_hMFTUtyuU-2" vertex="1">
          <mxGeometry x="70" y="90" width="120" height="190" as="geometry" />
        </mxCell>
        <mxCell id="V5ecV9tyhU_hMFTUtyuU-4" value="Service Proxy" style="rounded=1;whiteSpace=wrap;html=1;fillColor=#ffe6cc;strokeColor=#d79b00;" parent="V5ecV9tyhU_hMFTUtyuU-3" vertex="1">
          <mxGeometry x="20" y="15" width="80" height="25" as="geometry" />
        </mxCell>
        <mxCell id="V5ecV9tyhU_hMFTUtyuU-5" value="Application" style="sketch=0;html=1;dashed=0;whitespace=wrap;fillColor=#2875E2;strokeColor=#ffffff;points=[[0.005,0.63,0],[0.1,0.2,0],[0.9,0.2,0],[0.5,0,0],[0.995,0.63,0],[0.72,0.99,0],[0.5,1,0],[0.28,0.99,0]];verticalLabelPosition=bottom;align=center;verticalAlign=top;shape=mxgraph.kubernetes.icon;prIcon=pod" parent="V5ecV9tyhU_hMFTUtyuU-3" vertex="1">
          <mxGeometry x="35" y="56" width="50" height="48" as="geometry" />
        </mxCell>
        <mxCell id="V5ecV9tyhU_hMFTUtyuU-9" value="Deployment" style="fontStyle=0;verticalAlign=bottom;align=left;spacingTop=-2;fillColor=none;rounded=0;whiteSpace=wrap;html=1;strokeColor=#4376BB;strokeWidth=1;dashed=0;container=1;collapsible=0;expand=0;recursiveResize=0;" parent="V5ecV9tyhU_hMFTUtyuU-2" vertex="1">
          <mxGeometry x="270" y="90" width="120" height="190" as="geometry" />
        </mxCell>
        <mxCell id="V5ecV9tyhU_hMFTUtyuU-10" value="Service Proxy" style="rounded=1;whiteSpace=wrap;html=1;fillColor=#ffe6cc;strokeColor=#d79b00;" parent="V5ecV9tyhU_hMFTUtyuU-9" vertex="1">
          <mxGeometry x="20" y="15" width="80" height="25" as="geometry" />
        </mxCell>
        <mxCell id="V5ecV9tyhU_hMFTUtyuU-11" value="Application" style="sketch=0;html=1;dashed=0;whitespace=wrap;fillColor=#2875E2;strokeColor=#ffffff;points=[[0.005,0.63,0],[0.1,0.2,0],[0.9,0.2,0],[0.5,0,0],[0.995,0.63,0],[0.72,0.99,0],[0.5,1,0],[0.28,0.99,0]];verticalLabelPosition=bottom;align=center;verticalAlign=top;shape=mxgraph.kubernetes.icon;prIcon=pod" parent="V5ecV9tyhU_hMFTUtyuU-9" vertex="1">
          <mxGeometry x="35" y="56" width="50" height="48" as="geometry" />
        </mxCell>
        <mxCell id="V5ecV9tyhU_hMFTUtyuU-12" style="edgeStyle=orthogonalEdgeStyle;rounded=0;orthogonalLoop=1;jettySize=auto;html=1;exitX=1;exitY=0.5;exitDx=0;exitDy=0;" parent="V5ecV9tyhU_hMFTUtyuU-2" source="V5ecV9tyhU_hMFTUtyuU-4" target="V5ecV9tyhU_hMFTUtyuU-10" edge="1">
          <mxGeometry relative="1" as="geometry" />
        </mxCell>
        <mxCell id="V5ecV9tyhU_hMFTUtyuU-13" value="Deployment" style="fontStyle=0;verticalAlign=bottom;align=left;spacingTop=-2;fillColor=none;rounded=0;whiteSpace=wrap;html=1;strokeColor=#4376BB;strokeWidth=1;dashed=0;container=1;collapsible=0;expand=0;recursiveResize=0;" parent="V5ecV9tyhU_hMFTUtyuU-2" vertex="1">
          <mxGeometry x="470" y="90" width="120" height="190" as="geometry" />
        </mxCell>
        <mxCell id="V5ecV9tyhU_hMFTUtyuU-14" value="Service Proxy" style="rounded=1;whiteSpace=wrap;html=1;fillColor=#ffe6cc;strokeColor=#d79b00;" parent="V5ecV9tyhU_hMFTUtyuU-13" vertex="1">
          <mxGeometry x="20" y="15" width="80" height="25" as="geometry" />
        </mxCell>
        <mxCell id="V5ecV9tyhU_hMFTUtyuU-15" value="Application" style="sketch=0;html=1;dashed=0;whitespace=wrap;fillColor=#2875E2;strokeColor=#ffffff;points=[[0.005,0.63,0],[0.1,0.2,0],[0.9,0.2,0],[0.5,0,0],[0.995,0.63,0],[0.72,0.99,0],[0.5,1,0],[0.28,0.99,0]];verticalLabelPosition=bottom;align=center;verticalAlign=top;shape=mxgraph.kubernetes.icon;prIcon=pod" parent="V5ecV9tyhU_hMFTUtyuU-13" vertex="1">
          <mxGeometry x="35" y="56" width="50" height="48" as="geometry" />
        </mxCell>
        <mxCell id="V5ecV9tyhU_hMFTUtyuU-16" style="edgeStyle=orthogonalEdgeStyle;rounded=0;orthogonalLoop=1;jettySize=auto;html=1;exitX=1;exitY=0.5;exitDx=0;exitDy=0;entryX=0;entryY=0.5;entryDx=0;entryDy=0;" parent="V5ecV9tyhU_hMFTUtyuU-2" source="V5ecV9tyhU_hMFTUtyuU-10" target="V5ecV9tyhU_hMFTUtyuU-14" edge="1">
          <mxGeometry relative="1" as="geometry" />
        </mxCell>
        <mxCell id="V5ecV9tyhU_hMFTUtyuU-17" value="Deployment" style="fontStyle=0;verticalAlign=bottom;align=left;spacingTop=-2;fillColor=none;rounded=0;whiteSpace=wrap;html=1;strokeColor=#4376BB;strokeWidth=1;dashed=0;container=1;collapsible=0;expand=0;recursiveResize=0;" parent="V5ecV9tyhU_hMFTUtyuU-2" vertex="1">
          <mxGeometry x="670" y="90" width="120" height="190" as="geometry" />
        </mxCell>
        <mxCell id="V5ecV9tyhU_hMFTUtyuU-18" value="Service Proxy" style="rounded=1;whiteSpace=wrap;html=1;fillColor=#ffe6cc;strokeColor=#d79b00;" parent="V5ecV9tyhU_hMFTUtyuU-17" vertex="1">
          <mxGeometry x="20" y="15" width="80" height="25" as="geometry" />
        </mxCell>
        <mxCell id="V5ecV9tyhU_hMFTUtyuU-19" value="Application" style="sketch=0;html=1;dashed=0;whitespace=wrap;fillColor=#2875E2;strokeColor=#ffffff;points=[[0.005,0.63,0],[0.1,0.2,0],[0.9,0.2,0],[0.5,0,0],[0.995,0.63,0],[0.72,0.99,0],[0.5,1,0],[0.28,0.99,0]];verticalLabelPosition=bottom;align=center;verticalAlign=top;shape=mxgraph.kubernetes.icon;prIcon=pod" parent="V5ecV9tyhU_hMFTUtyuU-17" vertex="1">
          <mxGeometry x="35" y="56" width="50" height="48" as="geometry" />
        </mxCell>
        <mxCell id="V5ecV9tyhU_hMFTUtyuU-20" style="edgeStyle=orthogonalEdgeStyle;rounded=0;orthogonalLoop=1;jettySize=auto;html=1;exitX=1;exitY=0.5;exitDx=0;exitDy=0;" parent="V5ecV9tyhU_hMFTUtyuU-2" source="V5ecV9tyhU_hMFTUtyuU-14" target="V5ecV9tyhU_hMFTUtyuU-18" edge="1">
          <mxGeometry relative="1" as="geometry" />
        </mxCell>
        <mxCell id="V5ecV9tyhU_hMFTUtyuU-22" style="edgeStyle=orthogonalEdgeStyle;rounded=0;orthogonalLoop=1;jettySize=auto;html=1;entryX=0.5;entryY=0;entryDx=0;entryDy=0;" parent="1" source="V5ecV9tyhU_hMFTUtyuU-21" target="V5ecV9tyhU_hMFTUtyuU-4" edge="1">
          <mxGeometry relative="1" as="geometry">
            <Array as="points">
              <mxPoint x="675" y="420" />
              <mxPoint x="380" y="420" />
            </Array>
          </mxGeometry>
        </mxCell>
        <mxCell id="V5ecV9tyhU_hMFTUtyuU-23" style="edgeStyle=orthogonalEdgeStyle;rounded=0;orthogonalLoop=1;jettySize=auto;html=1;entryX=0.5;entryY=0;entryDx=0;entryDy=0;" parent="1" source="V5ecV9tyhU_hMFTUtyuU-21" target="V5ecV9tyhU_hMFTUtyuU-10" edge="1">
          <mxGeometry relative="1" as="geometry">
            <Array as="points">
              <mxPoint x="675" y="420" />
              <mxPoint x="580" y="420" />
            </Array>
          </mxGeometry>
        </mxCell>
        <mxCell id="V5ecV9tyhU_hMFTUtyuU-24" style="edgeStyle=orthogonalEdgeStyle;rounded=0;orthogonalLoop=1;jettySize=auto;html=1;entryX=0.5;entryY=0;entryDx=0;entryDy=0;" parent="1" source="V5ecV9tyhU_hMFTUtyuU-21" target="V5ecV9tyhU_hMFTUtyuU-14" edge="1">
          <mxGeometry relative="1" as="geometry">
            <Array as="points">
              <mxPoint x="675" y="420" />
              <mxPoint x="780" y="420" />
            </Array>
          </mxGeometry>
        </mxCell>
        <mxCell id="V5ecV9tyhU_hMFTUtyuU-25" style="edgeStyle=orthogonalEdgeStyle;rounded=0;orthogonalLoop=1;jettySize=auto;html=1;entryX=0.5;entryY=0;entryDx=0;entryDy=0;" parent="1" source="V5ecV9tyhU_hMFTUtyuU-21" target="V5ecV9tyhU_hMFTUtyuU-18" edge="1">
          <mxGeometry relative="1" as="geometry">
            <Array as="points">
              <mxPoint x="675" y="420" />
              <mxPoint x="980" y="420" />
            </Array>
          </mxGeometry>
        </mxCell>
        <mxCell id="V5ecV9tyhU_hMFTUtyuU-21" value="Control Plane" style="fontStyle=0;verticalAlign=top;align=center;spacingTop=-2;fillColor=#dae8fc;rounded=0;whiteSpace=wrap;html=1;strokeColor=#6c8ebf;strokeWidth=2;dashed=1;container=1;collapsible=0;expand=0;recursiveResize=0;" parent="1" vertex="1">
          <mxGeometry x="250" y="210" width="850" height="90" as="geometry" />
        </mxCell>
        <mxCell id="V5ecV9tyhU_hMFTUtyuU-30" value="Configuration and management of the data plane&lt;br&gt;&lt;br&gt;&lt;br&gt;&lt;br&gt;&lt;br&gt;&lt;br&gt;&lt;br&gt;&lt;br&gt;" style="strokeWidth=1;shadow=0;dashed=0;align=center;html=1;shape=mxgraph.mockup.text.callout;linkText=;textSize=17;textColor=#666666;callDir=NE;callStyle=line;fontSize=17;fontColor=#666666;align=right;verticalAlign=middle;strokeColor=#666666;whiteSpace=wrap;labelPosition=center;verticalLabelPosition=middle;" parent="1" vertex="1">
          <mxGeometry x="1100" y="160" width="200" height="100" as="geometry" />
        </mxCell>
        <mxCell id="V5ecV9tyhU_hMFTUtyuU-33" value="Commands and &lt;br&gt;queries &lt;br&gt;sent to services &lt;br&gt;through &lt;br&gt;service &lt;br&gt;proxies" style="strokeWidth=1;shadow=0;dashed=0;align=center;html=1;shape=mxgraph.mockup.text.callout;linkText=;textSize=17;textColor=#666666;callDir=SE;callStyle=line;fontSize=17;fontColor=#666666;align=right;verticalAlign=bottom;strokeColor=#666666;whiteSpace=wrap;" parent="1" vertex="1">
          <mxGeometry x="1020" y="475" width="280" height="210" as="geometry" />
        </mxCell>
      </root>
    </mxGraphModel>
  </diagram>
  <diagram name="istio" id="GkcMPwPqXXkYnjYy2TSv">
    <mxGraphModel dx="2074" dy="1214" grid="1" gridSize="10" guides="1" tooltips="1" connect="1" arrows="1" fold="1" page="1" pageScale="1" pageWidth="1600" pageHeight="900" math="0" shadow="0">
      <root>
        <mxCell id="-_p3C9zOZhp6_IxSW4rM-0" />
        <mxCell id="-_p3C9zOZhp6_IxSW4rM-1" parent="-_p3C9zOZhp6_IxSW4rM-0" />
        <mxCell id="thOq6WOlugTJagQ4YU4N-8" value="Kubernetes" style="fontStyle=0;verticalAlign=top;align=center;spacingTop=-2;fillColor=none;rounded=0;whiteSpace=wrap;html=1;strokeColor=#4376BB;strokeWidth=1;dashed=0;container=1;collapsible=0;expand=0;recursiveResize=0;" vertex="1" parent="-_p3C9zOZhp6_IxSW4rM-1">
          <mxGeometry x="170" y="150" width="1080" height="610" as="geometry" />
        </mxCell>
        <mxCell id="EC-obcND7KR-jf8-Z3XB-11" value="Enables to &lt;br&gt;configure service &lt;br&gt;proxies &lt;br&gt;&amp;nbsp; dynamically" style="strokeWidth=1;shadow=0;dashed=0;align=center;html=1;shape=mxgraph.mockup.text.callout;linkText=;textSize=17;textColor=#666666;callDir=SE;callStyle=line;fontSize=17;fontColor=#666666;align=right;verticalAlign=bottom;strokeColor=#666666;whiteSpace=wrap;spacingLeft=0;spacingTop=1;spacingRight=-6;" parent="thOq6WOlugTJagQ4YU4N-8" vertex="1">
          <mxGeometry x="950" y="140" width="340" height="100" as="geometry" />
        </mxCell>
        <mxCell id="-_p3C9zOZhp6_IxSW4rM-2" value="Data Plane&amp;nbsp;&amp;nbsp;" style="fontStyle=0;verticalAlign=bottom;align=right;spacingTop=-2;fillColor=#f5f5f5;rounded=0;whiteSpace=wrap;html=1;strokeWidth=2;dashed=1;container=1;collapsible=0;expand=0;recursiveResize=0;labelPosition=center;verticalLabelPosition=middle;strokeColor=#666666;fontColor=#333333;" parent="thOq6WOlugTJagQ4YU4N-8" vertex="1">
          <mxGeometry x="160" y="190" width="850" height="350" as="geometry" />
        </mxCell>
        <mxCell id="-_p3C9zOZhp6_IxSW4rM-3" value="Deployment" style="fontStyle=0;verticalAlign=bottom;align=left;spacingTop=-2;fillColor=none;rounded=0;whiteSpace=wrap;html=1;strokeColor=#4376BB;strokeWidth=1;dashed=0;container=1;collapsible=0;expand=0;recursiveResize=0;" parent="-_p3C9zOZhp6_IxSW4rM-2" vertex="1">
          <mxGeometry x="70" y="90" width="120" height="190" as="geometry" />
        </mxCell>
        <mxCell id="-_p3C9zOZhp6_IxSW4rM-4" value="" style="rounded=1;whiteSpace=wrap;html=1;fillColor=#ffe6cc;strokeColor=#d79b00;" parent="-_p3C9zOZhp6_IxSW4rM-3" vertex="1">
          <mxGeometry x="10" y="15" width="100" height="35" as="geometry" />
        </mxCell>
        <mxCell id="-_p3C9zOZhp6_IxSW4rM-5" value="Application" style="sketch=0;html=1;dashed=0;whitespace=wrap;fillColor=#2875E2;strokeColor=#ffffff;points=[[0.005,0.63,0],[0.1,0.2,0],[0.9,0.2,0],[0.5,0,0],[0.995,0.63,0],[0.72,0.99,0],[0.5,1,0],[0.28,0.99,0]];verticalLabelPosition=bottom;align=center;verticalAlign=top;shape=mxgraph.kubernetes.icon;prIcon=pod" parent="-_p3C9zOZhp6_IxSW4rM-3" vertex="1">
          <mxGeometry x="35" y="80" width="50" height="48" as="geometry" />
        </mxCell>
        <mxCell id="thOq6WOlugTJagQ4YU4N-9" style="edgeStyle=orthogonalEdgeStyle;rounded=0;orthogonalLoop=1;jettySize=auto;html=1;exitX=0.5;exitY=1;exitDx=0;exitDy=0;entryX=0.5;entryY=0;entryDx=0;entryDy=0;entryPerimeter=0;startArrow=classic;startFill=1;" edge="1" parent="-_p3C9zOZhp6_IxSW4rM-3" source="EdU7lLu_OT2y-gdl0RWG-0" target="-_p3C9zOZhp6_IxSW4rM-5">
          <mxGeometry relative="1" as="geometry" />
        </mxCell>
        <mxCell id="EdU7lLu_OT2y-gdl0RWG-0" value="" style="shape=image;verticalLabelPosition=bottom;labelBackgroundColor=default;verticalAlign=top;aspect=fixed;imageAspect=0;image=https://raw.githubusercontent.com/envoyproxy/artwork/main/PNG/Envoy_Logo_Final_PANTONE.png;" parent="-_p3C9zOZhp6_IxSW4rM-3" vertex="1">
          <mxGeometry x="15.220000000000027" y="18" width="89.55" height="30" as="geometry" />
        </mxCell>
        <mxCell id="EdU7lLu_OT2y-gdl0RWG-4" value="Deployment" style="fontStyle=0;verticalAlign=bottom;align=left;spacingTop=-2;fillColor=none;rounded=0;whiteSpace=wrap;html=1;strokeColor=#4376BB;strokeWidth=1;dashed=0;container=1;collapsible=0;expand=0;recursiveResize=0;" parent="-_p3C9zOZhp6_IxSW4rM-2" vertex="1">
          <mxGeometry x="270" y="90" width="120" height="190" as="geometry" />
        </mxCell>
        <mxCell id="EdU7lLu_OT2y-gdl0RWG-5" value="" style="rounded=1;whiteSpace=wrap;html=1;fillColor=#ffe6cc;strokeColor=#d79b00;" parent="EdU7lLu_OT2y-gdl0RWG-4" vertex="1">
          <mxGeometry x="10" y="15" width="100" height="35" as="geometry" />
        </mxCell>
        <mxCell id="thOq6WOlugTJagQ4YU4N-10" style="edgeStyle=orthogonalEdgeStyle;rounded=0;orthogonalLoop=1;jettySize=auto;html=1;exitX=0.5;exitY=0;exitDx=0;exitDy=0;exitPerimeter=0;entryX=0.5;entryY=1;entryDx=0;entryDy=0;startArrow=classic;startFill=1;" edge="1" parent="EdU7lLu_OT2y-gdl0RWG-4" source="EdU7lLu_OT2y-gdl0RWG-6" target="EdU7lLu_OT2y-gdl0RWG-7">
          <mxGeometry relative="1" as="geometry" />
        </mxCell>
        <mxCell id="EdU7lLu_OT2y-gdl0RWG-6" value="Application" style="sketch=0;html=1;dashed=0;whitespace=wrap;fillColor=#2875E2;strokeColor=#ffffff;points=[[0.005,0.63,0],[0.1,0.2,0],[0.9,0.2,0],[0.5,0,0],[0.995,0.63,0],[0.72,0.99,0],[0.5,1,0],[0.28,0.99,0]];verticalLabelPosition=bottom;align=center;verticalAlign=top;shape=mxgraph.kubernetes.icon;prIcon=pod" parent="EdU7lLu_OT2y-gdl0RWG-4" vertex="1">
          <mxGeometry x="35" y="80" width="50" height="48" as="geometry" />
        </mxCell>
        <mxCell id="EdU7lLu_OT2y-gdl0RWG-7" value="" style="shape=image;verticalLabelPosition=bottom;labelBackgroundColor=default;verticalAlign=top;aspect=fixed;imageAspect=0;image=https://raw.githubusercontent.com/envoyproxy/artwork/main/PNG/Envoy_Logo_Final_PANTONE.png;" parent="EdU7lLu_OT2y-gdl0RWG-4" vertex="1">
          <mxGeometry x="15.220000000000027" y="18" width="89.55" height="30" as="geometry" />
        </mxCell>
        <mxCell id="EdU7lLu_OT2y-gdl0RWG-8" value="Deployment" style="fontStyle=0;verticalAlign=bottom;align=left;spacingTop=-2;fillColor=none;rounded=0;whiteSpace=wrap;html=1;strokeColor=#4376BB;strokeWidth=1;dashed=0;container=1;collapsible=0;expand=0;recursiveResize=0;" parent="-_p3C9zOZhp6_IxSW4rM-2" vertex="1">
          <mxGeometry x="470" y="90" width="120" height="190" as="geometry" />
        </mxCell>
        <mxCell id="EdU7lLu_OT2y-gdl0RWG-9" value="" style="rounded=1;whiteSpace=wrap;html=1;fillColor=#ffe6cc;strokeColor=#d79b00;" parent="EdU7lLu_OT2y-gdl0RWG-8" vertex="1">
          <mxGeometry x="10" y="15" width="100" height="35" as="geometry" />
        </mxCell>
        <mxCell id="thOq6WOlugTJagQ4YU4N-11" style="edgeStyle=orthogonalEdgeStyle;rounded=0;orthogonalLoop=1;jettySize=auto;html=1;entryX=0.5;entryY=1;entryDx=0;entryDy=0;startArrow=classic;startFill=1;" edge="1" parent="EdU7lLu_OT2y-gdl0RWG-8" source="EdU7lLu_OT2y-gdl0RWG-10" target="EdU7lLu_OT2y-gdl0RWG-11">
          <mxGeometry relative="1" as="geometry" />
        </mxCell>
        <mxCell id="EdU7lLu_OT2y-gdl0RWG-10" value="Application" style="sketch=0;html=1;dashed=0;whitespace=wrap;fillColor=#2875E2;strokeColor=#ffffff;points=[[0.005,0.63,0],[0.1,0.2,0],[0.9,0.2,0],[0.5,0,0],[0.995,0.63,0],[0.72,0.99,0],[0.5,1,0],[0.28,0.99,0]];verticalLabelPosition=bottom;align=center;verticalAlign=top;shape=mxgraph.kubernetes.icon;prIcon=pod" parent="EdU7lLu_OT2y-gdl0RWG-8" vertex="1">
          <mxGeometry x="35" y="80" width="50" height="48" as="geometry" />
        </mxCell>
        <mxCell id="EdU7lLu_OT2y-gdl0RWG-11" value="" style="shape=image;verticalLabelPosition=bottom;labelBackgroundColor=default;verticalAlign=top;aspect=fixed;imageAspect=0;image=https://raw.githubusercontent.com/envoyproxy/artwork/main/PNG/Envoy_Logo_Final_PANTONE.png;" parent="EdU7lLu_OT2y-gdl0RWG-8" vertex="1">
          <mxGeometry x="15.220000000000027" y="18" width="89.55" height="30" as="geometry" />
        </mxCell>
        <mxCell id="EdU7lLu_OT2y-gdl0RWG-12" value="Deployment" style="fontStyle=0;verticalAlign=bottom;align=left;spacingTop=-2;fillColor=none;rounded=0;whiteSpace=wrap;html=1;strokeColor=#4376BB;strokeWidth=1;dashed=0;container=1;collapsible=0;expand=0;recursiveResize=0;" parent="-_p3C9zOZhp6_IxSW4rM-2" vertex="1">
          <mxGeometry x="670" y="90" width="120" height="190" as="geometry" />
        </mxCell>
        <mxCell id="EdU7lLu_OT2y-gdl0RWG-13" value="" style="rounded=1;whiteSpace=wrap;html=1;fillColor=#ffe6cc;strokeColor=#d79b00;" parent="EdU7lLu_OT2y-gdl0RWG-12" vertex="1">
          <mxGeometry x="10" y="15" width="100" height="35" as="geometry" />
        </mxCell>
        <mxCell id="thOq6WOlugTJagQ4YU4N-12" style="edgeStyle=orthogonalEdgeStyle;rounded=0;orthogonalLoop=1;jettySize=auto;html=1;entryX=0.5;entryY=1;entryDx=0;entryDy=0;startArrow=classic;startFill=1;" edge="1" parent="EdU7lLu_OT2y-gdl0RWG-12" source="EdU7lLu_OT2y-gdl0RWG-14" target="EdU7lLu_OT2y-gdl0RWG-15">
          <mxGeometry relative="1" as="geometry" />
        </mxCell>
        <mxCell id="EdU7lLu_OT2y-gdl0RWG-14" value="Application" style="sketch=0;html=1;dashed=0;whitespace=wrap;fillColor=#2875E2;strokeColor=#ffffff;points=[[0.005,0.63,0],[0.1,0.2,0],[0.9,0.2,0],[0.5,0,0],[0.995,0.63,0],[0.72,0.99,0],[0.5,1,0],[0.28,0.99,0]];verticalLabelPosition=bottom;align=center;verticalAlign=top;shape=mxgraph.kubernetes.icon;prIcon=pod" parent="EdU7lLu_OT2y-gdl0RWG-12" vertex="1">
          <mxGeometry x="35" y="80" width="50" height="48" as="geometry" />
        </mxCell>
        <mxCell id="EdU7lLu_OT2y-gdl0RWG-15" value="" style="shape=image;verticalLabelPosition=bottom;labelBackgroundColor=default;verticalAlign=top;aspect=fixed;imageAspect=0;image=https://raw.githubusercontent.com/envoyproxy/artwork/main/PNG/Envoy_Logo_Final_PANTONE.png;" parent="EdU7lLu_OT2y-gdl0RWG-12" vertex="1">
          <mxGeometry x="15.220000000000027" y="18" width="89.55" height="30" as="geometry" />
        </mxCell>
        <mxCell id="EdU7lLu_OT2y-gdl0RWG-18" style="edgeStyle=orthogonalEdgeStyle;rounded=0;orthogonalLoop=1;jettySize=auto;html=1;exitX=1;exitY=0.5;exitDx=0;exitDy=0;entryX=0;entryY=0.5;entryDx=0;entryDy=0;" parent="-_p3C9zOZhp6_IxSW4rM-2" source="-_p3C9zOZhp6_IxSW4rM-4" target="EdU7lLu_OT2y-gdl0RWG-5" edge="1">
          <mxGeometry relative="1" as="geometry" />
        </mxCell>
        <mxCell id="thOq6WOlugTJagQ4YU4N-0" value="HTTP, gRPC, &lt;br&gt;TCP" style="edgeLabel;html=1;align=center;verticalAlign=top;resizable=0;points=[];labelPosition=center;verticalLabelPosition=bottom;labelBackgroundColor=none;" vertex="1" connectable="0" parent="EdU7lLu_OT2y-gdl0RWG-18">
          <mxGeometry x="-0.1" y="2" relative="1" as="geometry">
            <mxPoint x="2" y="1" as="offset" />
          </mxGeometry>
        </mxCell>
        <mxCell id="EdU7lLu_OT2y-gdl0RWG-19" style="edgeStyle=orthogonalEdgeStyle;rounded=0;orthogonalLoop=1;jettySize=auto;html=1;exitX=1;exitY=0.5;exitDx=0;exitDy=0;entryX=0;entryY=0.5;entryDx=0;entryDy=0;" parent="-_p3C9zOZhp6_IxSW4rM-2" source="EdU7lLu_OT2y-gdl0RWG-5" target="EdU7lLu_OT2y-gdl0RWG-9" edge="1">
          <mxGeometry relative="1" as="geometry" />
        </mxCell>
        <mxCell id="EdU7lLu_OT2y-gdl0RWG-20" style="edgeStyle=orthogonalEdgeStyle;rounded=0;orthogonalLoop=1;jettySize=auto;html=1;exitX=1;exitY=0.5;exitDx=0;exitDy=0;entryX=0;entryY=0.5;entryDx=0;entryDy=0;" parent="-_p3C9zOZhp6_IxSW4rM-2" source="EdU7lLu_OT2y-gdl0RWG-9" target="EdU7lLu_OT2y-gdl0RWG-13" edge="1">
          <mxGeometry relative="1" as="geometry" />
        </mxCell>
        <mxCell id="thOq6WOlugTJagQ4YU4N-2" value="mTLS" style="sketch=0;pointerEvents=1;shadow=0;dashed=0;html=1;strokeColor=none;labelPosition=center;verticalLabelPosition=top;verticalAlign=bottom;outlineConnect=0;align=center;shape=mxgraph.office.security.lock_protected;fillColor=#2072B8;" vertex="1" parent="-_p3C9zOZhp6_IxSW4rM-2">
          <mxGeometry x="218" y="92" width="20" height="26" as="geometry" />
        </mxCell>
        <mxCell id="thOq6WOlugTJagQ4YU4N-3" value="HTTP, gRPC, &lt;br&gt;TCP" style="edgeLabel;html=1;align=center;verticalAlign=top;resizable=0;points=[];labelPosition=center;verticalLabelPosition=bottom;labelBackgroundColor=none;" vertex="1" connectable="0" parent="-_p3C9zOZhp6_IxSW4rM-2">
          <mxGeometry x="428" y="121.5" as="geometry" />
        </mxCell>
        <mxCell id="thOq6WOlugTJagQ4YU4N-4" value="mTLS" style="sketch=0;pointerEvents=1;shadow=0;dashed=0;html=1;strokeColor=none;labelPosition=center;verticalLabelPosition=top;verticalAlign=bottom;outlineConnect=0;align=center;shape=mxgraph.office.security.lock_protected;fillColor=#2072B8;" vertex="1" parent="-_p3C9zOZhp6_IxSW4rM-2">
          <mxGeometry x="419" y="92" width="20" height="26" as="geometry" />
        </mxCell>
        <mxCell id="thOq6WOlugTJagQ4YU4N-5" value="HTTP, gRPC, &lt;br&gt;TCP" style="edgeLabel;html=1;align=center;verticalAlign=top;resizable=0;points=[];labelPosition=center;verticalLabelPosition=bottom;labelBackgroundColor=none;" vertex="1" connectable="0" parent="-_p3C9zOZhp6_IxSW4rM-2">
          <mxGeometry x="630" y="121.5" as="geometry" />
        </mxCell>
        <mxCell id="thOq6WOlugTJagQ4YU4N-6" value="mTLS" style="sketch=0;pointerEvents=1;shadow=0;dashed=0;html=1;strokeColor=none;labelPosition=center;verticalLabelPosition=top;verticalAlign=bottom;outlineConnect=0;align=center;shape=mxgraph.office.security.lock_protected;fillColor=#2072B8;" vertex="1" parent="-_p3C9zOZhp6_IxSW4rM-2">
          <mxGeometry x="621" y="92" width="20" height="26" as="geometry" />
        </mxCell>
        <mxCell id="-_p3C9zOZhp6_IxSW4rM-18" style="edgeStyle=orthogonalEdgeStyle;rounded=0;orthogonalLoop=1;jettySize=auto;html=1;entryX=0.5;entryY=0;entryDx=0;entryDy=0;dashed=1;dashPattern=1 1;fillColor=#6a00ff;strokeColor=#3700CC;" parent="thOq6WOlugTJagQ4YU4N-8" source="-_p3C9zOZhp6_IxSW4rM-22" target="-_p3C9zOZhp6_IxSW4rM-4" edge="1">
          <mxGeometry relative="1" as="geometry">
            <Array as="points">
              <mxPoint x="585" y="250" />
              <mxPoint x="290" y="250" />
            </Array>
          </mxGeometry>
        </mxCell>
        <mxCell id="-_p3C9zOZhp6_IxSW4rM-19" style="edgeStyle=orthogonalEdgeStyle;rounded=0;orthogonalLoop=1;jettySize=auto;html=1;entryX=0.5;entryY=0;entryDx=0;entryDy=0;dashed=1;dashPattern=1 1;fillColor=#6a00ff;strokeColor=#3700CC;" parent="thOq6WOlugTJagQ4YU4N-8" source="-_p3C9zOZhp6_IxSW4rM-22" target="EdU7lLu_OT2y-gdl0RWG-7" edge="1">
          <mxGeometry relative="1" as="geometry">
            <mxPoint x="490" y="295" as="targetPoint" />
            <Array as="points">
              <mxPoint x="585" y="250" />
              <mxPoint x="490" y="250" />
            </Array>
          </mxGeometry>
        </mxCell>
        <mxCell id="-_p3C9zOZhp6_IxSW4rM-20" style="edgeStyle=orthogonalEdgeStyle;rounded=0;orthogonalLoop=1;jettySize=auto;html=1;entryX=0.5;entryY=0;entryDx=0;entryDy=0;dashed=1;dashPattern=1 1;fillColor=#6a00ff;strokeColor=#3700CC;" parent="thOq6WOlugTJagQ4YU4N-8" source="-_p3C9zOZhp6_IxSW4rM-22" target="EdU7lLu_OT2y-gdl0RWG-11" edge="1">
          <mxGeometry relative="1" as="geometry">
            <mxPoint x="690" y="295" as="targetPoint" />
            <Array as="points">
              <mxPoint x="585" y="250" />
              <mxPoint x="690" y="250" />
            </Array>
          </mxGeometry>
        </mxCell>
        <mxCell id="-_p3C9zOZhp6_IxSW4rM-21" style="edgeStyle=orthogonalEdgeStyle;rounded=0;orthogonalLoop=1;jettySize=auto;html=1;entryX=0.5;entryY=0;entryDx=0;entryDy=0;dashed=1;dashPattern=1 1;fillColor=#6a00ff;strokeColor=#3700CC;" parent="thOq6WOlugTJagQ4YU4N-8" source="-_p3C9zOZhp6_IxSW4rM-22" target="EdU7lLu_OT2y-gdl0RWG-15" edge="1">
          <mxGeometry relative="1" as="geometry">
            <mxPoint x="890" y="295" as="targetPoint" />
            <Array as="points">
              <mxPoint x="585" y="250" />
              <mxPoint x="890" y="250" />
            </Array>
          </mxGeometry>
        </mxCell>
        <mxCell id="-_p3C9zOZhp6_IxSW4rM-22" value="Control Plane" style="fontStyle=0;verticalAlign=top;align=center;spacingTop=-2;fillColor=#dae8fc;rounded=0;whiteSpace=wrap;html=1;strokeColor=#6c8ebf;strokeWidth=2;dashed=1;container=1;collapsible=0;expand=0;recursiveResize=0;" parent="thOq6WOlugTJagQ4YU4N-8" vertex="1">
          <mxGeometry x="160" y="40" width="850" height="90" as="geometry" />
        </mxCell>
        <mxCell id="EdU7lLu_OT2y-gdl0RWG-39" value="" style="group" parent="-_p3C9zOZhp6_IxSW4rM-22" vertex="1" connectable="0">
          <mxGeometry x="55" y="22" width="740" height="144" as="geometry" />
        </mxCell>
        <mxCell id="EdU7lLu_OT2y-gdl0RWG-38" value="" style="group;fillColor=#f5f5f5;strokeColor=#666666;fontColor=#333333;container=0;" parent="EdU7lLu_OT2y-gdl0RWG-39" vertex="1" connectable="0">
          <mxGeometry width="740" height="58" as="geometry" />
        </mxCell>
        <mxCell id="EdU7lLu_OT2y-gdl0RWG-28" value="" style="rounded=1;whiteSpace=wrap;html=1;fillColor=#fff2cc;strokeColor=#d6b656;" parent="EdU7lLu_OT2y-gdl0RWG-39" vertex="1">
          <mxGeometry width="740" height="58" as="geometry" />
        </mxCell>
        <mxCell id="EdU7lLu_OT2y-gdl0RWG-29" value="Pilot" style="rounded=0;whiteSpace=wrap;html=1;" parent="EdU7lLu_OT2y-gdl0RWG-39" vertex="1">
          <mxGeometry x="200" y="16.5" width="120" height="25" as="geometry" />
        </mxCell>
        <mxCell id="EdU7lLu_OT2y-gdl0RWG-30" value="Citadel" style="rounded=0;whiteSpace=wrap;html=1;" parent="EdU7lLu_OT2y-gdl0RWG-39" vertex="1">
          <mxGeometry x="340" y="16.5" width="120" height="25" as="geometry" />
        </mxCell>
        <mxCell id="EdU7lLu_OT2y-gdl0RWG-35" value="Galley" style="rounded=0;whiteSpace=wrap;html=1;" parent="EdU7lLu_OT2y-gdl0RWG-39" vertex="1">
          <mxGeometry x="490" y="16.5" width="120" height="25" as="geometry" />
        </mxCell>
        <mxCell id="EdU7lLu_OT2y-gdl0RWG-37" value="istiod" style="shape=image;verticalLabelPosition=middle;labelBackgroundColor=none;verticalAlign=middle;aspect=fixed;imageAspect=0;image=https://raw.githubusercontent.com/cncf/artwork/master/projects/istio/icon/color/istio-icon-color.png;labelPosition=right;align=left;" parent="EdU7lLu_OT2y-gdl0RWG-39" vertex="1">
          <mxGeometry x="20" y="4" width="50" height="50" as="geometry" />
        </mxCell>
        <mxCell id="EC-obcND7KR-jf8-Z3XB-0" value="xDS API" style="rounded=1;whiteSpace=wrap;html=1;fillColor=#0050ef;fontColor=#ffffff;strokeColor=#001DBC;" parent="EdU7lLu_OT2y-gdl0RWG-39" vertex="1">
          <mxGeometry y="60" width="740" height="26" as="geometry" />
        </mxCell>
        <mxCell id="-_p3C9zOZhp6_IxSW4rM-23" value="Configuration and management of the data plane&lt;br&gt;&lt;br&gt;&lt;br&gt;&lt;br&gt;&lt;br&gt;&lt;br&gt;&lt;br&gt;&lt;br&gt;" style="strokeWidth=1;shadow=0;dashed=0;align=center;html=1;shape=mxgraph.mockup.text.callout;linkText=;textSize=17;textColor=#666666;callDir=NE;callStyle=line;fontSize=17;fontColor=#666666;align=right;verticalAlign=middle;strokeColor=#666666;whiteSpace=wrap;labelPosition=center;verticalLabelPosition=middle;" parent="thOq6WOlugTJagQ4YU4N-8" vertex="1">
          <mxGeometry x="1010" y="-10" width="200" height="100" as="geometry" />
        </mxCell>
        <mxCell id="-_p3C9zOZhp6_IxSW4rM-24" value="Commands and &lt;br&gt;queries &lt;br&gt;sent to services &lt;br&gt;through &lt;br&gt;service &lt;br&gt;proxies" style="strokeWidth=1;shadow=0;dashed=0;align=center;html=1;shape=mxgraph.mockup.text.callout;linkText=;textSize=17;textColor=#666666;callDir=SE;callStyle=line;fontSize=17;fontColor=#666666;align=right;verticalAlign=bottom;strokeColor=#666666;whiteSpace=wrap;" parent="thOq6WOlugTJagQ4YU4N-8" vertex="1">
          <mxGeometry x="933" y="330" width="280" height="210" as="geometry" />
        </mxCell>
        <mxCell id="EdU7lLu_OT2y-gdl0RWG-22" value="" style="endArrow=classic;html=1;rounded=0;entryX=0;entryY=0.5;entryDx=0;entryDy=0;" parent="thOq6WOlugTJagQ4YU4N-8" target="-_p3C9zOZhp6_IxSW4rM-4" edge="1" source="thOq6WOlugTJagQ4YU4N-22">
          <mxGeometry width="50" height="50" relative="1" as="geometry">
            <mxPoint x="-160" y="313" as="sourcePoint" />
            <mxPoint x="730" y="420" as="targetPoint" />
          </mxGeometry>
        </mxCell>
        <mxCell id="EdU7lLu_OT2y-gdl0RWG-26" value="" style="endArrow=classic;html=1;rounded=0;exitX=1;exitY=0.5;exitDx=0;exitDy=0;" parent="thOq6WOlugTJagQ4YU4N-8" source="thOq6WOlugTJagQ4YU4N-25" edge="1">
          <mxGeometry width="50" height="50" relative="1" as="geometry">
            <mxPoint x="1140" y="310" as="sourcePoint" />
            <mxPoint x="1290" y="313" as="targetPoint" />
          </mxGeometry>
        </mxCell>
        <mxCell id="EdU7lLu_OT2y-gdl0RWG-27" value="Egress Traffic" style="edgeLabel;html=1;align=center;verticalAlign=middle;resizable=0;points=[];" parent="EdU7lLu_OT2y-gdl0RWG-26" vertex="1" connectable="0">
          <mxGeometry x="0.5379" relative="1" as="geometry">
            <mxPoint x="-30" as="offset" />
          </mxGeometry>
        </mxCell>
        <mxCell id="EC-obcND7KR-jf8-Z3XB-2" style="edgeStyle=orthogonalEdgeStyle;rounded=0;orthogonalLoop=1;jettySize=auto;html=1;entryX=0;entryY=0.5;entryDx=0;entryDy=0;" parent="thOq6WOlugTJagQ4YU4N-8" source="EC-obcND7KR-jf8-Z3XB-1" target="EdU7lLu_OT2y-gdl0RWG-28" edge="1">
          <mxGeometry relative="1" as="geometry" />
        </mxCell>
        <mxCell id="EC-obcND7KR-jf8-Z3XB-4" style="edgeStyle=orthogonalEdgeStyle;rounded=0;orthogonalLoop=1;jettySize=auto;html=1;entryX=0.5;entryY=0;entryDx=0;entryDy=0;entryPerimeter=0;exitX=0.5;exitY=1;exitDx=0;exitDy=0;exitPerimeter=0;" parent="thOq6WOlugTJagQ4YU4N-8" source="EC-obcND7KR-jf8-Z3XB-6" target="EC-obcND7KR-jf8-Z3XB-1" edge="1">
          <mxGeometry relative="1" as="geometry">
            <mxPoint x="65" y="-27" as="sourcePoint" />
          </mxGeometry>
        </mxCell>
        <mxCell id="EC-obcND7KR-jf8-Z3XB-6" value="kubectl" style="sketch=0;points=[[0,0,0],[0.25,0,0],[0.5,0,0],[0.75,0,0],[1,0,0],[0,1,0],[0.25,1,0],[0.5,1,0],[0.75,1,0],[1,1,0],[0,0.25,0],[0,0.5,0],[0,0.75,0],[1,0.25,0],[1,0.5,0],[1,0.75,0]];outlineConnect=0;fontColor=#232F3E;gradientColor=#4D72F3;gradientDirection=north;fillColor=#3334B9;strokeColor=#ffffff;dashed=0;verticalLabelPosition=bottom;verticalAlign=top;align=center;html=1;fontSize=12;fontStyle=0;aspect=fixed;shape=mxgraph.aws4.resourceIcon;resIcon=mxgraph.aws4.command_line_interface;labelBackgroundColor=default;" parent="thOq6WOlugTJagQ4YU4N-8" vertex="1">
          <mxGeometry x="26" y="-110" width="78" height="78" as="geometry" />
        </mxCell>
        <mxCell id="EC-obcND7KR-jf8-Z3XB-10" style="edgeStyle=orthogonalEdgeStyle;rounded=0;orthogonalLoop=1;jettySize=auto;html=1;exitX=0;exitY=0.5;exitDx=0;exitDy=0;exitPerimeter=0;" parent="thOq6WOlugTJagQ4YU4N-8" source="EC-obcND7KR-jf8-Z3XB-7" target="EC-obcND7KR-jf8-Z3XB-6" edge="1">
          <mxGeometry relative="1" as="geometry" />
        </mxCell>
        <mxCell id="EC-obcND7KR-jf8-Z3XB-7" value="Configuration Resource" style="verticalLabelPosition=bottom;html=1;verticalAlign=top;align=center;strokeColor=none;fillColor=#00BEF2;shape=mxgraph.azure.cloud_services_configuration_file;pointerEvents=1;" parent="thOq6WOlugTJagQ4YU4N-8" vertex="1">
          <mxGeometry x="176" y="-96" width="47.5" height="50" as="geometry" />
        </mxCell>
        <mxCell id="thOq6WOlugTJagQ4YU4N-13" style="edgeStyle=orthogonalEdgeStyle;rounded=0;orthogonalLoop=1;jettySize=auto;html=1;exitX=0.5;exitY=0;exitDx=0;exitDy=0;exitPerimeter=0;entryX=0.5;entryY=1;entryDx=0;entryDy=0;entryPerimeter=0;" edge="1" parent="thOq6WOlugTJagQ4YU4N-8" source="thOq6WOlugTJagQ4YU4N-7" target="EC-obcND7KR-jf8-Z3XB-1">
          <mxGeometry relative="1" as="geometry" />
        </mxCell>
        <mxCell id="EC-obcND7KR-jf8-Z3XB-9" style="edgeStyle=orthogonalEdgeStyle;rounded=0;orthogonalLoop=1;jettySize=auto;html=1;entryX=1;entryY=0.5;entryDx=0;entryDy=0;entryPerimeter=0;" parent="thOq6WOlugTJagQ4YU4N-8" source="EC-obcND7KR-jf8-Z3XB-8" target="EC-obcND7KR-jf8-Z3XB-7" edge="1">
          <mxGeometry relative="1" as="geometry" />
        </mxCell>
        <mxCell id="EC-obcND7KR-jf8-Z3XB-8" value="Operator" style="sketch=0;aspect=fixed;pointerEvents=1;shadow=0;dashed=0;html=1;strokeColor=none;labelPosition=center;verticalLabelPosition=bottom;verticalAlign=top;align=center;fillColor=#00188D;shape=mxgraph.azure.user" parent="thOq6WOlugTJagQ4YU4N-8" vertex="1">
          <mxGeometry x="286" y="-96" width="47" height="50" as="geometry" />
        </mxCell>
        <mxCell id="thOq6WOlugTJagQ4YU4N-15" style="edgeStyle=orthogonalEdgeStyle;rounded=0;orthogonalLoop=1;jettySize=auto;html=1;entryX=0.5;entryY=1;entryDx=0;entryDy=0;" edge="1" parent="thOq6WOlugTJagQ4YU4N-8" source="thOq6WOlugTJagQ4YU4N-7" target="EdU7lLu_OT2y-gdl0RWG-4">
          <mxGeometry relative="1" as="geometry" />
        </mxCell>
        <mxCell id="thOq6WOlugTJagQ4YU4N-16" style="edgeStyle=orthogonalEdgeStyle;rounded=0;orthogonalLoop=1;jettySize=auto;html=1;entryX=0.5;entryY=1;entryDx=0;entryDy=0;" edge="1" parent="thOq6WOlugTJagQ4YU4N-8" source="thOq6WOlugTJagQ4YU4N-7" target="EdU7lLu_OT2y-gdl0RWG-8">
          <mxGeometry relative="1" as="geometry" />
        </mxCell>
        <mxCell id="thOq6WOlugTJagQ4YU4N-17" style="edgeStyle=orthogonalEdgeStyle;rounded=0;orthogonalLoop=1;jettySize=auto;html=1;entryX=0.5;entryY=1;entryDx=0;entryDy=0;" edge="1" parent="thOq6WOlugTJagQ4YU4N-8" source="thOq6WOlugTJagQ4YU4N-7" target="EdU7lLu_OT2y-gdl0RWG-12">
          <mxGeometry relative="1" as="geometry" />
        </mxCell>
        <mxCell id="thOq6WOlugTJagQ4YU4N-18" style="edgeStyle=orthogonalEdgeStyle;rounded=0;orthogonalLoop=1;jettySize=auto;html=1;entryX=0.5;entryY=1;entryDx=0;entryDy=0;" edge="1" parent="thOq6WOlugTJagQ4YU4N-8" source="thOq6WOlugTJagQ4YU4N-7" target="-_p3C9zOZhp6_IxSW4rM-3">
          <mxGeometry relative="1" as="geometry" />
        </mxCell>
        <mxCell id="thOq6WOlugTJagQ4YU4N-7" value="kubelet" style="sketch=0;html=1;dashed=0;whitespace=wrap;fillColor=#2875E2;strokeColor=#ffffff;points=[[0.005,0.63,0],[0.1,0.2,0],[0.9,0.2,0],[0.5,0,0],[0.995,0.63,0],[0.72,0.99,0],[0.5,1,0],[0.28,0.99,0]];verticalLabelPosition=bottom;align=center;verticalAlign=top;shape=mxgraph.kubernetes.icon;prIcon=kubelet" vertex="1" parent="thOq6WOlugTJagQ4YU4N-8">
          <mxGeometry x="40" y="540" width="50" height="48" as="geometry" />
        </mxCell>
        <mxCell id="EC-obcND7KR-jf8-Z3XB-1" value="Kubernetes API" style="sketch=0;html=1;dashed=0;whitespace=wrap;fillColor=#2875E2;strokeColor=#ffffff;points=[[0.005,0.63,0],[0.1,0.2,0],[0.9,0.2,0],[0.5,0,0],[0.995,0.63,0],[0.72,0.99,0],[0.5,1,0],[0.28,0.99,0]];verticalLabelPosition=bottom;align=center;verticalAlign=top;shape=mxgraph.kubernetes.icon;prIcon=api;labelBackgroundColor=#FFFFFF;labelBorderColor=none;spacingBottom=0;spacingTop=10;" parent="thOq6WOlugTJagQ4YU4N-8" vertex="1">
          <mxGeometry x="40" y="67" width="50" height="48" as="geometry" />
        </mxCell>
        <mxCell id="thOq6WOlugTJagQ4YU4N-23" value="" style="endArrow=classic;html=1;rounded=0;entryX=0;entryY=0.5;entryDx=0;entryDy=0;" edge="1" parent="thOq6WOlugTJagQ4YU4N-8" target="thOq6WOlugTJagQ4YU4N-22">
          <mxGeometry width="50" height="50" relative="1" as="geometry">
            <mxPoint x="-110" y="313" as="sourcePoint" />
            <mxPoint x="410" y="463" as="targetPoint" />
          </mxGeometry>
        </mxCell>
        <mxCell id="thOq6WOlugTJagQ4YU4N-24" value="Ingress Traffic" style="edgeLabel;html=1;align=center;verticalAlign=middle;resizable=0;points=[];" vertex="1" connectable="0" parent="thOq6WOlugTJagQ4YU4N-23">
          <mxGeometry x="-0.6782" y="1" relative="1" as="geometry">
            <mxPoint x="9" as="offset" />
          </mxGeometry>
        </mxCell>
        <mxCell id="thOq6WOlugTJagQ4YU4N-22" value="Ingress Gateway" style="image;aspect=fixed;html=1;points=[];align=center;fontSize=12;image=img/lib/azure2/networking/Local_Network_Gateways.svg;labelBackgroundColor=default;" vertex="1" parent="thOq6WOlugTJagQ4YU4N-8">
          <mxGeometry x="127" y="279" width="68" height="68" as="geometry" />
        </mxCell>
        <mxCell id="thOq6WOlugTJagQ4YU4N-26" value="" style="endArrow=classic;html=1;rounded=0;exitX=1;exitY=0.5;exitDx=0;exitDy=0;" edge="1" parent="thOq6WOlugTJagQ4YU4N-8" source="EdU7lLu_OT2y-gdl0RWG-13" target="thOq6WOlugTJagQ4YU4N-25">
          <mxGeometry width="50" height="50" relative="1" as="geometry">
            <mxPoint x="1110" y="463" as="sourcePoint" />
            <mxPoint x="1400" y="463" as="targetPoint" />
          </mxGeometry>
        </mxCell>
        <mxCell id="thOq6WOlugTJagQ4YU4N-25" value="Egress Gateway" style="image;aspect=fixed;html=1;points=[];align=center;fontSize=12;image=img/lib/azure2/networking/Local_Network_Gateways.svg;labelBackgroundColor=default;" vertex="1" parent="thOq6WOlugTJagQ4YU4N-8">
          <mxGeometry x="1047" y="277.5" width="68" height="68" as="geometry" />
        </mxCell>
      </root>
    </mxGraphModel>
  </diagram>
</mxfile>
